<svg xmlns="http://www.w3.org/2000/svg" width="418" height="327" viewBox="0 0 418 327">
<g>
<path d="M 287.46 298.47 C278.92,300.69 120.40,300.65 112.11,298.42 C94.26,293.62 79.49,277.69 76.03,259.50 C75.21,255.22 74.97,229.97 75.19,171.50 L 75.50 89.50 L 77.90 83.50 C84.69,66.52 96.52,55.88 113.46,51.53 C122.40,49.24 277.60,49.24 286.54,51.53 C303.48,55.88 315.31,66.52 322.10,83.50 L 324.50 89.50 L 324.81 171.50 C325.03,229.97 324.79,255.22 323.97,259.50 C320.47,277.91 305.65,293.73 287.46,298.47 ZM 149.00 242.33 C154.41,244.66 245.00,244.73 250.63,242.40 C255.61,240.34 257.76,238.38 260.12,233.77 C261.91,230.26 262.03,227.09 262.17,181.27 C262.18,179.31 262.18,177.42 262.19,175.60 C262.31,137.40 262.34,130.56 259.00,126.44 C258.11,125.35 256.99,124.44 255.57,123.20 C251.71,119.81 249.04,119.11 238.50,118.74 L 231.50 118.50 L 231.20 113.77 C230.52,103.32 220.25,103.31 219.04,113.76 L 218.50 118.50 L 181.50 118.50 L 180.96 113.76 C179.75,103.31 169.48,103.32 168.80,113.77 L 168.50 118.50 L 161.50 118.74 C150.96,119.11 148.29,119.81 144.43,123.20 C143.01,124.44 141.89,125.35 141.00,126.44 C137.66,130.56 137.69,137.40 137.81,175.60 C137.82,177.42 137.82,179.31 137.83,181.27 C137.97,227.09 138.09,230.26 139.88,233.77 C142.18,238.28 144.37,240.33 149.00,242.33 ZM 248.00 229.00 C246.06,230.94 244.67,231.00 200.00,231.00 C155.33,231.00 153.94,230.94 152.00,229.00 C150.09,227.09 150.00,225.67 150.00,198.00 L 150.00 169.00 L 250.00 169.00 L 250.00 198.00 C250.00,225.67 249.91,227.09 248.00,229.00 ZM 249.97 145.75 L 250.00 156.00 L 150.00 156.00 L 150.03 145.75 C150.07,132.13 150.55,131.50 160.79,131.50 L 168.50 131.50 L 169.00 136.47 C169.41,140.59 169.97,141.70 172.25,142.97 C174.72,144.34 175.28,144.34 177.75,142.97 C180.03,141.70 180.59,140.59 181.00,136.47 L 181.50 131.50 L 218.50 131.50 L 219.00 136.47 C219.41,140.59 219.97,141.70 222.25,142.97 C224.72,144.34 225.28,144.34 227.75,142.97 C230.03,141.70 230.59,140.59 231.00,136.47 L 231.50 131.50 L 239.21 131.50 C249.45,131.50 249.93,132.13 249.97,145.75 Z" fill="rgb(248,114,23)"/>
<path d="M 0.00 163.50 L 0.00 0.00 L 209.00 0.00 L 418.00 0.00 L 418.00 163.50 L 418.00 327.00 L 209.00 327.00 L 0.00 327.00 L 0.00 163.50 ZM 287.46 298.47 C305.65,293.73 320.47,277.91 323.97,259.50 C324.79,255.22 325.03,229.97 324.81,171.50 L 324.50 89.50 L 322.10 83.50 C315.31,66.52 303.48,55.88 286.54,51.53 C277.60,49.24 122.40,49.24 113.46,51.53 C96.52,55.88 84.69,66.52 77.90,83.50 L 75.50 89.50 L 75.19 171.50 C74.97,229.97 75.21,255.22 76.03,259.50 C79.49,277.69 94.26,293.62 112.11,298.42 C120.40,300.65 278.92,300.69 287.46,298.47 ZM 149.00 242.33 C144.37,240.33 142.18,238.28 139.88,233.77 C138.09,230.26 137.97,227.09 137.83,181.27 C137.66,127.10 137.41,129.36 144.43,123.20 C148.29,119.81 150.96,119.11 161.50,118.74 L 168.50 118.50 L 168.80 113.77 C169.48,103.32 179.75,103.31 180.96,113.76 L 181.50 118.50 L 200.00 118.50 L 218.50 118.50 L 219.04 113.76 C220.25,103.31 230.52,103.32 231.20,113.77 L 231.50 118.50 L 238.50 118.74 C249.04,119.11 251.71,119.81 255.57,123.20 C262.59,129.36 262.34,127.10 262.17,181.27 C262.03,227.09 261.91,230.26 260.12,233.77 C257.76,238.38 255.61,240.34 250.63,242.40 C245.00,244.73 154.41,244.66 149.00,242.33 ZM 248.00 229.00 C249.91,227.09 250.00,225.67 250.00,198.00 L 250.00 169.00 L 200.00 169.00 L 150.00 169.00 L 150.00 198.00 C150.00,225.67 150.09,227.09 152.00,229.00 C153.94,230.94 155.33,231.00 200.00,231.00 C244.67,231.00 246.06,230.94 248.00,229.00 ZM 249.97 145.75 C249.93,132.13 249.45,131.50 239.21,131.50 L 231.50 131.50 L 231.00 136.47 C230.59,140.59 230.03,141.70 227.75,142.97 C225.28,144.34 224.72,144.34 222.25,142.97 C219.97,141.70 219.41,140.59 219.00,136.47 L 218.50 131.50 L 200.00 131.50 L 181.50 131.50 L 181.00 136.47 C180.59,140.59 180.03,141.70 177.75,142.97 C175.28,144.34 174.72,144.34 172.25,142.97 C169.97,141.70 169.41,140.59 169.00,136.47 L 168.50 131.50 L 160.79 131.50 C150.55,131.50 150.07,132.13 150.03,145.75 L 150.00 156.00 L 200.00 156.00 L 250.00 156.00 L 249.97 145.75 Z" fill="rgb(248,247,246)"/>
</g>
</svg>